<?xml version="1.0" encoding="utf-8" ?>
<svg baseProfile="full" height="1000" version="1.1" width="1200" xmlns="http://www.w3.org/2000/svg" xmlns:ev="http://www.w3.org/2001/xml-events" xmlns:xlink="http://www.w3.org/1999/xlink"><defs><style type="text/css"><![CDATA[
        .table-box { fill: #f0f0f0; stroke: #333; stroke-width: 2px; }
        .table-title { font-family: sans-serif; font-size: 16px; font-weight: bold; text-anchor: middle; }
        .table-text { font-family: sans-serif; font-size: 12px; }
        .line { stroke: #666; stroke-width: 1px; fill: none; marker-end: url(#arrow); }
    ]]></style><marker id="arrow" markerHeight="10" markerWidth="10" orient="auto" refX="10" refY="5"><path d="M0,0 L10,5 L0,10 L3,5 z" fill="#666" /></marker></defs><rect class="table-box" height="180" width="250" x="50" y="50" /><text class="table-title" x="175.0" y="70">ACCOUNT</text><line stroke="#333" stroke-width="1" x1="50" x2="300" y1="80" y2="80" /><text class="table-text" x="60" y="95">id (PK)</text><text class="table-text" x="60" y="115">pwd</text><text class="table-text" x="60" y="135">name</text><text class="table-text" x="60" y="155">department</text><text class="table-text" x="60" y="175">position</text><text class="table-text" x="60" y="195">phone_number</text><text class="table-text" x="60" y="215">e_mail</text><rect class="table-box" height="120" width="250" x="350" y="50" /><text class="table-title" x="475.0" y="70">MAKER</text><line stroke="#333" stroke-width="1" x1="350" x2="600" y1="80" y2="80" /><text class="table-text" x="360" y="95">id (PK)</text><text class="table-text" x="360" y="115">name</text><text class="table-text" x="360" y="135">created_at</text><text class="table-text" x="360" y="155">updated_at</text><rect class="table-box" height="180" width="250" x="350" y="300" /><text class="table-title" x="475.0" y="320">RESOURCES</text><line stroke="#333" stroke-width="1" x1="350" x2="600" y1="330" y2="330" /><text class="table-text" x="360" y="345">id (PK)</text><text class="table-text" x="360" y="365">maker_id (PK, FK)</text><text class="table-text" x="360" y="385">name</text><text class="table-text" x="360" y="405">unit</text><text class="table-text" x="360" y="425">solo_price</text><text class="table-text" x="360" y="445">major</text><text class="table-text" x="360" y="465">minor</text><rect class="table-box" height="180" width="250" x="50" y="300" /><text class="table-title" x="175.0" y="320">CERTIFICATION</text><line stroke="#333" stroke-width="1" x1="50" x2="300" y1="330" y2="330" /><text class="table-text" x="60" y="345">id (PK)</text><text class="table-text" x="60" y="365">resources_id (FK)</text><text class="table-text" x="60" y="385">maker_id (FK)</text><text class="table-text" x="60" y="405">ul</text><text class="table-text" x="60" y="425">ce</text><text class="table-text" x="60" y="445">kc</text><text class="table-text" x="60" y="465">etc</text><rect class="table-box" height="160" width="250" x="650" y="50" /><text class="table-title" x="775.0" y="70">MACHINE</text><line stroke="#333" stroke-width="1" x1="650" x2="900" y1="80" y2="80" /><text class="table-text" x="660" y="95">id (PK)</text><text class="table-text" x="660" y="115">name</text><text class="table-text" x="660" y="135">manufacturer</text><text class="table-text" x="660" y="155">client</text><text class="table-text" x="660" y="175">price</text><text class="table-text" x="660" y="195">description</text><rect class="table-box" height="140" width="250" x="650" y="300" /><text class="table-title" x="775.0" y="320">MACHINE_RESOURCES</text><line stroke="#333" stroke-width="1" x1="650" x2="900" y1="330" y2="330" /><text class="table-text" x="660" y="345">machine_id (PK, FK)</text><text class="table-text" x="660" y="365">maker_id (PK, FK)</text><text class="table-text" x="660" y="385">resources_id (PK, FK)</text><text class="table-text" x="660" y="405">quantity</text><text class="table-text" x="660" y="425">solo_price</text><line class="line" x1="475.0" x2="475.0" y1="170" y2="300" /><line class="line" x1="600" x2="50" y1="350" y2="350" /><line class="line" x1="775.0" x2="775.0" y1="210" y2="300" /><line class="line" x1="600" x2="650" y1="350" y2="350" /></svg>